<svg width="16" height="16" xmlns="http://www.w3.org/2000/svg">
 <title/>

 <g>
  <title>background</title>
  <rect fill="none" id="canvas_background" height="402" width="582" y="-1" x="-1"/>
 </g>
 <g>
  <title>Layer 1</title>
  <path fill="#ffffff" stroke="null" id="Oval 12 copy 2" d="m8.026738,13.67246c3.08113,0 5.578877,-2.515703 5.578877,-5.618984c0,-3.103281 -2.497747,-5.618984 -5.578877,-5.618984c-3.08113,0 -5.578877,2.515703 -5.578877,5.618984c0,3.103281 2.497747,5.618984 5.578877,5.618984zm0,1.872995c-4.108173,0 -7.438502,-3.354271 -7.438502,-7.491979c0,-4.137708 3.330329,-7.491979 7.438502,-7.491979c4.108173,0 7.438502,3.354271 7.438502,7.491979c0,4.137708 -3.330329,7.491979 -7.438502,7.491979zm0,-3.745989c-2.054087,0 -3.719251,-1.677136 -3.719251,-3.745989c0,-2.068854 1.665165,-3.745989 3.719251,-3.745989c2.054087,0 3.719251,1.677136 3.719251,3.745989c0,2.068854 -1.665165,3.745989 -3.719251,3.745989zm0,0"/>
 </g>
</svg>