<svg width="96" height="96" xmlns="http://www.w3.org/2000/svg">

 <g>
  <title>background</title>
  <rect fill="none" id="canvas_background" height="402" width="582" y="-1" x="-1"/>
 </g>
 <g>
  <title>Layer 1</title>
  <path stroke="null" fill="#ffffff" id="svg_1" d="m47.828333,3.828335c-24.584425,0 -44.515008,19.891142 -44.515008,44.429171s19.930583,44.429171 44.515008,44.429171s44.515008,-19.891142 44.515008,-44.429171s-19.930583,-44.429171 -44.515008,-44.429171zm0,80.78031c-20.114713,0 -36.42137,-16.275213 -36.42137,-36.35114s16.306657,-36.35114 36.42137,-36.35114s36.42137,16.275213 36.42137,36.35114s-16.306657,36.35114 -36.42137,36.35114z"/>
  <path stroke="null" fill="#ffffff" id="svg_2" d="m55.188301,47.399156l10.910559,-10.244834c2.00852,-1.885967 2.00852,-4.944325 0,-6.829085c-2.00852,-1.885967 -5.2669,-1.885967 -7.275421,0l-10.909273,10.243627l-10.910559,-10.243627c-2.00852,-1.885967 -5.265615,-1.885967 -7.274135,0c-2.00852,1.885967 -2.00852,4.945532 0,6.829085l10.910559,10.244834l-10.910559,10.244834c-2.00852,1.885967 -2.00852,4.944325 0,6.829085c2.00852,1.885967 5.265615,1.885967 7.274135,0l10.910559,-10.243627l10.909273,10.243627c2.00852,1.885967 5.2669,1.885967 7.275421,0c2.00852,-1.885967 2.00852,-4.945532 0,-6.829085l-10.910559,-10.244834z"/>
 </g>
</svg>