<svg width="95.99999999999999" height="95.99999999999999" xmlns="http://www.w3.org/2000/svg">

 <g>
  <title>background</title>
  <rect fill="none" id="canvas_background" height="402" width="582" y="-1" x="-1"/>
 </g>
 <g>
  <title>Layer 1</title>
  <path fill="#ffffff" stroke="null" id="svg_1" d="m47.919786,0.14974c-26.382095,0 -47.770048,21.422779 -47.770048,47.85026s21.387953,47.85026 47.770048,47.85026s47.770048,-21.422779 47.770048,-47.85026s-21.387953,-47.85026 -47.770048,-47.85026zm0,87.000472c-21.585548,0 -39.084585,-17.52842 -39.084585,-39.150213s17.499037,-39.150213 39.084585,-39.150213s39.084585,17.52842 39.084585,39.150213s-17.499037,39.150213 -39.084585,39.150213z"/>
  <path fill="#ffffff" stroke="null" id="svg_2" d="m55.604027,48.481282l11.285055,-11.151894c2.077461,-2.052947 2.077461,-5.382087 0,-7.43372c-2.077461,-2.052947 -5.447683,-2.052947 -7.525144,0l-11.283725,11.150579l-11.285055,-11.150579c-2.077461,-2.052947 -5.446353,-2.052947 -7.523814,0c-2.077461,2.052947 -2.077461,5.383401 0,7.43372l11.285055,11.151894l-11.285055,11.151894c-2.077461,2.052947 -2.077461,5.382087 0,7.43372c2.077461,2.052947 5.446353,2.052947 7.523814,0l11.285055,-11.150579l11.283725,11.150579c2.077461,2.052947 5.447683,2.052947 7.525144,0c2.077461,-2.052947 2.077461,-5.383401 0,-7.43372l-11.285055,-11.151894z"/>
 </g>
</svg>